<?xml version="1.0" standalone="no"?>
<!DOCTYPE svg PUBLIC "-//W3C//DTD SVG 20010904//EN"
 "http://www.w3.org/TR/2001/REC-SVG-20010904/DTD/svg10.dtd">
<svg version="1.0" xmlns="http://www.w3.org/2000/svg"
 width="957.000000pt" height="1031.000000pt" viewBox="0 0 957.000000 1031.000000"
 preserveAspectRatio="xMidYMid meet">
<metadata>
Created by potrace 1.16, written by Peter Selinger 2001-2019
</metadata>
<g transform="translate(0.000000,1031.000000) scale(0.100000,-0.100000)"
fill="#000000" stroke="none">
<path d="M3055 10200 c-194 -16 -459 -50 -586 -76 -22 -4 -36 -24 -87 -132
-232 -488 -383 -1066 -433 -1657 -14 -168 -14 -592 1 -765 48 -597 185 -1111
421 -1583 196 -393 419 -699 725 -997 276 -268 583 -481 936 -650 335 -160
743 -290 1093 -350 72 -12 150 -29 175 -37 25 -8 149 -24 275 -36 206 -20 271
-21 627 -17 335 4 400 7 412 20 33 33 102 330 132 565 19 155 22 493 5 640
-82 698 -374 1351 -892 1995 -382 476 -870 922 -1492 1364 -75 54 -140 102
-143 107 -25 40 336 -164 601 -339 1055 -702 1738 -1679 1939 -2776 51 -273
61 -392 61 -716 0 -393 -28 -631 -116 -982 -274 -1093 -958 -2079 -1959 -2823
-217 -161 -631 -419 -676 -420 -13 -1 -29 -6 -36 -12 -7 -6 -17 -13 -23 -14
-5 -1 -18 -13 -28 -26 -10 -13 -25 -23 -32 -23 -8 0 -32 -9 -54 -21 -22 -11
-44 -18 -49 -15 -6 3 -41 -11 -78 -32 -38 -20 -116 -59 -174 -86 -58 -27 -109
-52 -114 -56 -4 -5 2 -13 13 -20 18 -9 40 -3 139 41 343 152 801 404 1202 662
1231 793 2201 1814 2734 2877 207 413 339 789 420 1194 52 258 67 396 73 664
8 373 -20 631 -112 1001 -263 1063 -840 1918 -1760 2611 -682 513 -1412 807
-2250 905 -164 19 -719 28 -890 15z"/>
</g>
</svg>
